<svg width="24" height="24" viewBox="0 0 24 24" fill="none" xmlns="http://www.w3.org/2000/svg">
<g clip-path="url(#clip0_2057_702)">
<path d="M18.9999 4H14.8199C14.3999 2.84 13.2999 2 11.9999 2C10.6999 2 9.59988 2.84 9.17988 4H4.99988C3.89988 4 2.99988 4.9 2.99988 6V20C2.99988 21.1 3.89988 22 4.99988 22H18.9999C20.0999 22 20.9999 21.1 20.9999 20V6C20.9999 4.9 20.0999 4 18.9999 4ZM11.9999 4C12.5499 4 12.9999 4.45 12.9999 5C12.9999 5.55 12.5499 6 11.9999 6C11.4499 6 10.9999 5.55 10.9999 5C10.9999 4.45 11.4499 4 11.9999 4ZM13.9999 18H6.99988V16H13.9999V18ZM16.9999 14H6.99988V12H16.9999V14ZM16.9999 10H6.99988V8H16.9999V10Z" fill="#8E8E93"/>
</g>
<defs>
<clipPath id="clip0_2057_702">
<rect width="24" height="24" fill="white"/>
</clipPath>
</defs>
</svg>
