<svg width="24" height="24" viewBox="0 0 24 24" fill="none" xmlns="http://www.w3.org/2000/svg">
<path fill-rule="evenodd" clip-rule="evenodd" d="M16.2071 3.61264H18.1881C20.2891 3.61264 22 5.34428 22 7.47085C22 7.47085 21.94 8.3711 21.92 9.62477C21.918 9.72401 21.8699 9.82122 21.7909 9.87996C21.3097 10.2354 20.8694 10.5291 20.8294 10.5493C19.1686 11.6632 17.2386 12.447 15.1826 12.8369C15.0485 12.8632 14.9165 12.7934 14.8484 12.6739C14.2721 11.6754 13.1956 11.0253 11.995 11.0253C10.8024 11.0253 9.71586 11.6683 9.12256 12.6678C9.05353 12.7853 8.92346 12.8531 8.7904 12.8278C6.75138 12.4369 4.82141 11.6541 3.17059 10.5594L2.21011 9.89109C2.13007 9.84046 2.08004 9.74932 2.08004 9.64806C2.05003 9.13161 2 7.47085 2 7.47085C2 5.34428 3.71086 3.61264 5.81191 3.61264H7.78289C7.97299 2.1443 9.2036 1 10.7044 1H13.2856C14.7864 1 16.017 2.1443 16.2071 3.61264ZM10.7044 2.51898C10.034 2.51898 9.46373 2.9848 9.30365 3.61265H14.6863C14.5263 2.9848 13.956 2.51898 13.2856 2.51898H10.7044Z" fill="#999999"/>
<path fill-rule="evenodd" clip-rule="evenodd" d="M21.6598 11.8152L21.6198 11.8355C19.5988 13.1924 17.1676 14.0937 14.6163 14.4684C14.2561 14.519 13.8959 14.2861 13.7959 13.9216C13.5758 13.0912 12.8654 12.5443 12.015 12.5443H11.985C11.1346 12.5443 10.4242 13.0912 10.2041 13.9216C10.1041 14.2861 9.74387 14.519 9.38369 14.4684C6.83242 14.0937 4.4012 13.1924 2.38019 11.8355C2.37019 11.8254 2.27014 11.7646 2.1901 11.8152C2.10005 11.8659 2.10005 11.9874 2.10005 11.9874L2.17009 17.1519C2.17009 19.2785 3.87094 21 5.97199 21H18.018C20.1191 21 21.8199 19.2785 21.8199 17.1519L21.9 11.9874C21.9 11.9874 21.9 11.8659 21.8099 11.8152C21.7599 11.7849 21.6999 11.795 21.6598 11.8152ZM12.7454 16.0583C12.7454 16.4836 12.4152 16.8177 11.995 16.8177C11.5848 16.8177 11.2446 16.4836 11.2446 16.0583V14.7519C11.2446 14.3367 11.5848 13.9924 11.995 13.9924C12.4152 13.9924 12.7454 14.3367 12.7454 14.7519V16.0583Z" fill="#999999"/>
</svg>
